<?xml version='1.0' encoding='UTF-8'?>
<svg width="31mm" height="31mm" version="1.1" viewBox="0 0 31 31" xmlns="http://www.w3.org/2000/svg"><path d="M1,1H2V2H1zM2,1H3V2H2zM3,1H4V2H3zM4,1H5V2H4zM5,1H6V2H5zM6,1H7V2H6zM7,1H8V2H7zM11,1H12V2H11zM13,1H14V2H13zM14,1H15V2H14zM17,1H18V2H17zM20,1H21V2H20zM21,1H22V2H21zM23,1H24V2H23zM24,1H25V2H24zM25,1H26V2H25zM26,1H27V2H26zM27,1H28V2H27zM28,1H29V2H28zM29,1H30V2H29zM1,2H2V3H1zM7,2H8V3H7zM10,2H11V3H10zM11,2H12V3H11zM12,2H13V3H12zM13,2H14V3H13zM14,2H15V3H14zM15,2H16V3H15zM16,2H17V3H16zM18,2H19V3H18zM21,2H22V3H21zM23,2H24V3H23zM29,2H30V3H29zM1,3H2V4H1zM3,3H4V4H3zM4,3H5V4H4zM5,3H6V4H5zM7,3H8V4H7zM11,3H12V4H11zM12,3H13V4H12zM13,3H14V4H13zM14,3H15V4H14zM17,3H18V4H17zM18,3H19V4H18zM19,3H20V4H19zM23,3H24V4H23zM25,3H26V4H25zM26,3H27V4H26zM27,3H28V4H27zM29,3H30V4H29zM1,4H2V5H1zM3,4H4V5H3zM4,4H5V5H4zM5,4H6V5H5zM7,4H8V5H7zM10,4H11V5H10zM11,4H12V5H11zM14,4H15V5H14zM15,4H16V5H15zM16,4H17V5H16zM20,4H21V5H20zM21,4H22V5H21zM23,4H24V5H23zM25,4H26V5H25zM26,4H27V5H26zM27,4H28V5H27zM29,4H30V5H29zM1,5H2V6H1zM3,5H4V6H3zM4,5H5V6H4zM5,5H6V6H5zM7,5H8V6H7zM11,5H12V6H11zM13,5H14V6H13zM14,5H15V6H14zM15,5H16V6H15zM17,5H18V6H17zM21,5H22V6H21zM23,5H24V6H23zM25,5H26V6H25zM26,5H27V6H26zM27,5H28V6H27zM29,5H30V6H29zM1,6H2V7H1zM7,6H8V7H7zM9,6H10V7H9zM11,6H12V7H11zM12,6H13V7H12zM14,6H15V7H14zM15,6H16V7H15zM18,6H19V7H18zM20,6H21V7H20zM21,6H22V7H21zM23,6H24V7H23zM29,6H30V7H29zM1,7H2V8H1zM2,7H3V8H2zM3,7H4V8H3zM4,7H5V8H4zM5,7H6V8H5zM6,7H7V8H6zM7,7H8V8H7zM9,7H10V8H9zM11,7H12V8H11zM13,7H14V8H13zM15,7H16V8H15zM17,7H18V8H17zM19,7H20V8H19zM21,7H22V8H21zM23,7H24V8H23zM24,7H25V8H24zM25,7H26V8H25zM26,7H27V8H26zM27,7H28V8H27zM28,7H29V8H28zM29,7H30V8H29zM10,8H11V9H10zM11,8H12V9H11zM15,8H16V9H15zM18,8H19V9H18zM19,8H20V9H19zM20,8H21V9H20zM21,8H22V9H21zM1,9H2V10H1zM4,9H5V10H4zM6,9H7V10H6zM7,9H8V10H7zM9,9H10V10H9zM10,9H11V10H10zM11,9H12V10H11zM12,9H13V10H12zM16,9H17V10H16zM19,9H20V10H19zM21,9H22V10H21zM22,9H23V10H22zM24,9H25V10H24zM3,10H4V11H3zM4,10H5V11H4zM5,10H6V11H5zM6,10H7V11H6zM11,10H12V11H11zM15,10H16V11H15zM16,10H17V11H16zM23,10H24V11H23zM26,10H27V11H26zM29,10H30V11H29zM2,11H3V12H2zM4,11H5V12H4zM5,11H6V12H5zM7,11H8V12H7zM17,11H18V12H17zM18,11H19V12H18zM20,11H21V12H20zM21,11H22V12H21zM24,11H25V12H24zM26,11H27V12H26zM27,11H28V12H27zM28,11H29V12H28zM2,12H3V13H2zM5,12H6V13H5zM6,12H7V13H6zM8,12H9V13H8zM10,12H11V13H10zM11,12H12V13H11zM12,12H13V13H12zM15,12H16V13H15zM16,12H17V13H16zM21,12H22V13H21zM23,12H24V13H23zM27,12H28V13H27zM28,12H29V13H28zM4,13H5V14H4zM5,13H6V14H5zM6,13H7V14H6zM7,13H8V14H7zM8,13H9V14H8zM10,13H11V14H10zM12,13H13V14H12zM13,13H14V14H13zM17,13H18V14H17zM18,13H19V14H18zM22,13H23V14H22zM23,13H24V14H23zM24,13H25V14H24zM26,13H27V14H26zM28,13H29V14H28zM29,13H30V14H29zM2,14H3V15H2zM3,14H4V15H3zM5,14H6V15H5zM8,14H9V15H8zM16,14H17V15H16zM18,14H19V15H18zM19,14H20V15H19zM20,14H21V15H20zM3,15H4V16H3zM4,15H5V16H4zM6,15H7V16H6zM7,15H8V16H7zM11,15H12V16H11zM12,15H13V16H12zM13,15H14V16H13zM16,15H17V16H16zM17,15H18V16H17zM23,15H24V16H23zM25,15H26V16H25zM26,15H27V16H26zM27,15H28V16H27zM28,15H29V16H28zM29,15H30V16H29zM1,16H2V17H1zM4,16H5V17H4zM5,16H6V17H5zM6,16H7V17H6zM10,16H11V17H10zM11,16H12V17H11zM13,16H14V17H13zM14,16H15V17H14zM15,16H16V17H15zM17,16H18V17H17zM18,16H19V17H18zM19,16H20V17H19zM20,16H21V17H20zM22,16H23V17H22zM23,16H24V17H23zM24,16H25V17H24zM26,16H27V17H26zM28,16H29V17H28zM1,17H2V18H1zM2,17H3V18H2zM4,17H5V18H4zM5,17H6V18H5zM7,17H8V18H7zM8,17H9V18H8zM10,17H11V18H10zM11,17H12V18H11zM13,17H14V18H13zM14,17H15V18H14zM15,17H16V18H15zM16,17H17V18H16zM18,17H19V18H18zM20,17H21V18H20zM22,17H23V18H22zM28,17H29V18H28zM2,18H3V19H2zM6,18H7V19H6zM10,18H11V19H10zM12,18H13V19H12zM16,18H17V19H16zM21,18H22V19H21zM22,18H23V19H22zM23,18H24V19H23zM24,18H25V19H24zM26,18H27V19H26zM29,18H30V19H29zM1,19H2V20H1zM3,19H4V20H3zM4,19H5V20H4zM5,19H6V20H5zM7,19H8V20H7zM8,19H9V20H8zM10,19H11V20H10zM11,19H12V20H11zM14,19H15V20H14zM17,19H18V20H17zM21,19H22V20H21zM22,19H23V20H22zM25,19H26V20H25zM28,19H29V20H28zM29,19H30V20H29zM3,20H4V21H3zM4,20H5V21H4zM5,20H6V21H5zM6,20H7V21H6zM8,20H9V21H8zM10,20H11V21H10zM12,20H13V21H12zM14,20H15V21H14zM16,20H17V21H16zM17,20H18V21H17zM18,20H19V21H18zM19,20H20V21H19zM20,20H21V21H20zM25,20H26V21H25zM28,20H29V21H28zM29,20H30V21H29zM1,21H2V22H1zM3,21H4V22H3zM5,21H6V22H5zM6,21H7V22H6zM7,21H8V22H7zM12,21H13V22H12zM13,21H14V22H13zM15,21H16V22H15zM21,21H22V22H21zM22,21H23V22H22zM23,21H24V22H23zM24,21H25V22H24zM25,21H26V22H25zM27,21H28V22H27zM9,22H10V23H9zM11,22H12V23H11zM12,22H13V23H12zM14,22H15V23H14zM17,22H18V23H17zM18,22H19V23H18zM21,22H22V23H21zM25,22H26V23H25zM27,22H28V23H27zM28,22H29V23H28zM29,22H30V23H29zM1,23H2V24H1zM2,23H3V24H2zM3,23H4V24H3zM4,23H5V24H4zM5,23H6V24H5zM6,23H7V24H6zM7,23H8V24H7zM10,23H11V24H10zM11,23H12V24H11zM14,23H15V24H14zM15,23H16V24H15zM18,23H19V24H18zM19,23H20V24H19zM21,23H22V24H21zM23,23H24V24H23zM25,23H26V24H25zM28,23H29V24H28zM1,24H2V25H1zM7,24H8V25H7zM9,24H10V25H9zM11,24H12V25H11zM13,24H14V25H13zM14,24H15V25H14zM16,24H17V25H16zM20,24H21V25H20zM21,24H22V25H21zM25,24H26V25H25zM26,24H27V25H26zM27,24H28V25H27zM28,24H29V25H28zM1,25H2V26H1zM3,25H4V26H3zM4,25H5V26H4zM5,25H6V26H5zM7,25H8V26H7zM10,25H11V26H10zM11,25H12V26H11zM13,25H14V26H13zM15,25H16V26H15zM18,25H19V26H18zM19,25H20V26H19zM21,25H22V26H21zM22,25H23V26H22zM23,25H24V26H23zM24,25H25V26H24zM25,25H26V26H25zM29,25H30V26H29zM1,26H2V27H1zM3,26H4V27H3zM4,26H5V27H4zM5,26H6V27H5zM7,26H8V27H7zM9,26H10V27H9zM13,26H14V27H13zM14,26H15V27H14zM15,26H16V27H15zM20,26H21V27H20zM23,26H24V27H23zM24,26H25V27H24zM25,26H26V27H25zM26,26H27V27H26zM27,26H28V27H27zM28,26H29V27H28zM1,27H2V28H1zM3,27H4V28H3zM4,27H5V28H4zM5,27H6V28H5zM7,27H8V28H7zM11,27H12V28H11zM12,27H13V28H12zM15,27H16V28H15zM20,27H21V28H20zM21,27H22V28H21zM25,27H26V28H25zM26,27H27V28H26zM27,27H28V28H27zM29,27H30V28H29zM1,28H2V29H1zM7,28H8V29H7zM10,28H11V29H10zM11,28H12V29H11zM14,28H15V29H14zM15,28H16V29H15zM16,28H17V29H16zM18,28H19V29H18zM20,28H21V29H20zM21,28H22V29H21zM23,28H24V29H23zM25,28H26V29H25zM28,28H29V29H28zM1,29H2V30H1zM2,29H3V30H2zM3,29H4V30H3zM4,29H5V30H4zM5,29H6V30H5zM6,29H7V30H6zM7,29H8V30H7zM9,29H10V30H9zM10,29H11V30H10zM11,29H12V30H11zM12,29H13V30H12zM14,29H15V30H14zM18,29H19V30H18zM21,29H22V30H21zM22,29H23V30H22zM23,29H24V30H23zM25,29H26V30H25zM26,29H27V30H26zM28,29H29V30H28z" id="qr-path" fill="#000000" fill-opacity="1" fill-rule="nonzero" stroke="none"/></svg>